<?xml version="1.0" encoding="utf-8"?>
<!-- Generator: Adobe Illustrator 24.0.1, SVG Export Plug-In . SVG Version: 6.00 Build 0)  -->
<svg version="1.1" id="Layer_1" xmlns="http://www.w3.org/2000/svg" xmlns:xlink="http://www.w3.org/1999/xlink" x="0px" y="0px"
	 viewBox="0 0 387.7 69.4" style="enable-background:new 0 0 387.7 69.4;" xml:space="preserve">
<style type="text/css">
	.st0{fill:#FFFFFF;}
	.st1{fill:#934390;}
</style>
<g>
	<path class="st0" d="M322.7,18.9c0,5.1-3.7,8.8-9,8.7c-2.6-0.1-5.2-1.9-6-4.2l-1.7,4h-0.5v-22c0-1.7-0.3-2.1-2.1-2.1h-0.7V3h5.1
		v11.5c0.7-2.3,3.3-4.1,5.9-4.1C319,10.1,322.7,13.9,322.7,18.9z M320.4,18.9c0-5-2.8-8.4-6.8-8.3c-3.3,0.1-5.9,2.7-5.9,5.2v6.1
		c0,2.5,2.5,5.2,5.9,5.2C317.6,27.4,320.4,23.9,320.4,18.9z"/>
	<path class="st0" d="M341.5,10.5v0.3h-0.3c-1.6,0-2.1,0.7-2.7,2.1l-6.2,14.5c-2.9,6.6-5.7,7.6-8.7,7.3c-0.9-0.1-1.4-0.3-1.4-1
		c0.1-0.7,0.6-0.8,1.5-0.6c3.5,0.5,5.4,0.4,8.1-5.6L325.7,13c-0.7-1.7-1.2-2.1-2.9-2.1h-0.4v-0.4h7.2v0.3h-0.5
		c-1.7,0-1.8,0.5-1.1,2.1l5,11.8l4.9-11.8c0.7-1.7,0.3-2.1-1.5-2.1h-0.1v-0.3C336.3,10.5,341.5,10.5,341.5,10.5z"/>
	<path class="st0" d="M300.4,40.2c0,6.8-4.8,12.2-13.5,12.2h-5.5h-5v-0.3h0.6c1.7,0,2.1-0.4,2.1-2.1V30.4c0-1.7-0.3-2.1-2.1-2.1
		h-0.6V28H287C295.5,27.9,300.4,33.4,300.4,40.2z M297.9,40.2c0-6.4-3.4-11.8-11.7-11.8h-4.8v23.5h4.8
		C294.5,51.9,297.9,46.5,297.9,40.2z"/>
	<path class="st0" d="M322.1,45.5c-1.1,1.9-4.2,7.1-10,7.1c-5.2,0-8.7-3-8.8-7.8c-0.1-5.2,4.1-9.5,9.1-9.5c3.8,0,6.8,2.5,6.8,6.3
		h-13.7c-0.1,0.8-0.2,1.7-0.1,2.5c0.5,4.8,3.7,7.2,7.4,7.4c5.6,0.3,8.3-4.5,9.2-6.1L322.1,45.5z M305.4,41.3h11.4
		c0.2-2.9-1.4-5.6-5.2-5.6C308.5,35.5,306,37.8,305.4,41.3z"/>
	<path class="st0" d="M336.1,48.1c-0.3,3.1-3.3,4.5-6.6,4.5c-3.7-0.1-5.3-2.1-6.2-2c-0.5,0.1-0.6,0.8-0.6,1.5c0,0.3,0,0.6,0,0.6
		h-0.2v-7h0.2c0,0,0,1,0,1.4c0,3.5,3.9,5.1,6.4,5.2c2.7,0.2,5.3-0.9,5.4-3.1c0.2-2.1-2.1-3.1-5.5-4.4c-3.7-1.4-6-2.9-5.6-5.9
		c0.6-3.1,4.5-3.6,5.7-3.6c3.5,0.1,4.4,1.5,5.1,1.5c0.4,0,0.5-0.5,0.5-1c0-0.4,0-0.6,0-0.6h0.2v7h-0.2c0,0,0-0.8,0-1.4
		c0-3.2-1.4-5.1-5.6-5.2c-1.8-0.1-4.3,1-4.2,3.1c0,2,2.1,2.6,4.5,3.7C332.1,43.6,336.4,44.7,336.1,48.1z"/>
	<path class="st0" d="M345.4,52.1v0.3h-7.9v-0.3h0.7c1.7,0,2.1-0.4,2.1-2.1V37.9c0-1.7-0.3-2.1-2.1-2.1h-0.7v-0.3h5.1V50
		c0,1.7,0.3,2.1,2.1,2.1H345.4z M339.6,30.3c0-0.9,0.7-1.6,1.6-1.6s1.6,0.7,1.6,1.6s-0.7,1.6-1.6,1.6
		C340.3,32,339.6,31.3,339.6,30.3z"/>
	<path class="st0" d="M365.1,58.3c-0.8,4.1-6.2,8.4-10.6,9.2c-3.9,0.7-10-0.9-9.6-5.1c0.2-2.7,2.5-4.5,4.8-6
		c0.8-0.5,1.6-0.9,2.3-1.1c-2.7-0.2-5.4-0.9-5.6-2.6c-0.2-2.5,3.7-3.7,6-3.7c-3.4-0.7-5.6-3.3-5.6-6.8c0-4.1,3.1-6.9,7.4-6.9
		c1,0,2,0.2,2.9,0.5c0.8-0.2,3-0.9,5.6-1.3c1.1-0.2,1.7,0.1,1.7,0.7c0,0.6-0.5,0.9-1.9,0.8c-2.7-0.2-4.2-0.2-4.9-0.1
		c2.6,1,4.3,3.3,4.3,6.3c0,4.1-3.1,6.9-7.5,6.9c-0.2,0-0.4,0-0.6,0c0,0-2.5,0.2-3.6,0.6c-1.1,0.5-1.9,1.1-1.8,1.8
		c0.2,1.2,2.5,1.5,8.3,1.9C362.9,53.7,365.9,54.4,365.1,58.3z M364.3,58.2c-0.4-3.1-5.2-2.5-8-2.7c-0.9,0-2.2-0.1-3.5-0.2
		c-1.3,0.5-3.2,1.4-5.1,3.2c-2.1,1.9-1.8,4.3,0.2,5.6c1.7,1.2,4.6,1.9,7.4,1.7C361,65.4,364.6,61.3,364.3,58.2z M354.3,48.7
		c3.3,0,5.2-2.6,5.2-6.6s-1.8-6.6-5.2-6.6c-3.3,0-5.1,2.6-5.1,6.6S351.1,48.7,354.3,48.7z"/>
	<path class="st0" d="M386.4,52.1v0.3h-7.8v-0.3h0.7c1.7,0,2.1-0.4,2.1-2.1c0-2.6,0-6.7,0-8.6c0-3.5-1.9-5.7-4.8-5.7
		c-3.5,0-5.8,3.2-5.8,5.8v8.4c0,1.7,0.3,2.1,2.1,2.1h0.7v0.3h-7.8V52h0.7c1.7,0,2.1-0.4,2.1-2.1v-12c0-1.7-0.3-2.1-2.1-2.1h-0.7
		v-0.3h5.1v4c0.8-2.2,3.1-4.3,6.2-4.3c4,0,6.6,2.3,6.6,6.6c0,2.5,0,8.1,0,8.1c0,1.7,0.3,2.1,2.1,2.1
		C385.7,52.1,386.4,52.1,386.4,52.1z"/>
</g>
<g>
	<path class="st1" d="M41.3,52.6c-2.1,0-4.2,0-6.3-0.1s-4.2-0.2-6.4-0.4c-3.7-0.3-7.4-0.8-11-1.3c-3.7-0.6-7.3-1.2-11-2
		c-0.4-0.1-1-0.2-1.5-0.3C4.5,48.3,4,48.2,3.6,48c-0.3-0.2-0.5-0.5-0.5-1s0.1-1,0.2-1.4c0.3-0.8,0.7-1,1.1-1c0.1,0,0.2,0,1,0.2
		c0.5,0.1,1.1,0.2,1.7,0.4s1.3,0.3,1.8,0.4l1.1,0.3c2.1,0.4,4.1,0.8,6.2,1.1s4.3,0.6,6.7,0.9c2.3,0.3,4.8,0.5,7.5,0.7
		c2.5,0.2,5.3,0.3,8.4,0.5c1.4-2.7,2.9-5.5,4.6-8.2c1.7-2.8,3.7-5.5,5.7-8.2c2.1-2.6,4.2-5.2,6.4-7.8c2.2-2.5,4.5-4.9,6.8-7.3
		l1.3-1.3c0.6-0.6,1.4-1.4,2.1-2s1.4-1.3,2-1.8c0.9-0.8,1.1-1,1.3-1s0.3-0.1,0.5-0.1c0.3,0,0.6,0.2,0.6,0.7c0,0.4-0.1,0.9-0.3,1.4
		c-0.2,0.6-0.5,1-0.7,1.3c-2.5,2.8-4.9,5.6-7.3,8.3s-4.8,5.5-7.1,8.3s-4.6,5.7-6.8,8.7c-2.1,2.8-4.1,5.8-6,8.9
		c2.1,0,4.6-0.1,7.6-0.2c3.4-0.1,7.1-0.4,10.9-0.8c3.8-0.4,7.7-1,11.6-1.9c3.8-0.9,7.4-2.1,10.4-3.5s5.6-3.3,7.5-5.5
		c1.9-2.1,2.9-4.8,2.9-7.9c0-2.8-0.6-5.3-1.9-7.5s-2.9-4.2-5.1-6c-2.1-1.7-4.6-3.3-7.3-4.5c-2.7-1.3-5.6-2.3-8.5-3.1
		s-5.9-1.4-8.7-1.7c-2.9-0.4-5.6-0.6-7.9-0.6c-2.4,0-5,0.1-7.9,0.3s-5.7,0.5-8.6,1s-5.7,1.1-8.4,1.8s-5.1,1.7-7.2,2.8
		s-3.7,2.5-4.9,4s-1.8,3.3-1.8,5.2c0,1.5,0.4,2.8,1.3,4c0.9,1.2,2.1,2.2,3.5,3.1c1.4,1,3.1,1.7,4.9,2.4c1.8,0.6,3.7,1.3,5.7,1.7
		c1.9,0.5,3.8,0.9,5.6,1.2s3.5,0.6,4.9,0.8h0.1l0.1,0.1c0.2,0.2,0.4,0.4,0.4,0.9s-0.1,1-0.3,1.5c-0.2,0.1-0.6,0.9-1.2,0.9
		c-1.4-0.1-3-0.2-4.8-0.5c-1.9-0.3-3.8-0.6-5.8-1.1s-4-1.1-6-1.8c-2-0.8-3.7-1.7-5.3-2.9c-1.6-1.1-2.9-2.5-3.8-4
		c-1-1.5-1.5-3.3-1.5-5.4c0-2.7,0.8-5.1,2.3-7.2c1.5-2,3.4-3.7,5.9-5.2C23,8,25.7,6.8,28.7,5.9s6-1.6,9.1-2.1c3-0.5,6-0.9,8.7-1.1
		c2.8-0.2,5.2-0.3,7.2-0.3c2.4,0,5,0.2,7.9,0.6s6,1,8.9,1.8c3,0.8,6,1.9,8.8,3.2s5.5,2.9,7.7,4.7s4.1,4,5.5,6.4
		c1.4,2.5,2.1,5.2,2.1,8.3c0,3.9-1,7.3-2.8,10.2c-1.8,2.8-4.3,5.2-7.3,7c-2.9,1.8-6.4,3.3-10.3,4.4c-3.8,1-7.7,1.8-11.6,2.4
		c-4,0.6-7.9,0.9-11.5,1C47.6,52.6,44.3,52.6,41.3,52.6z"/>
	<path class="st1" d="M117.1,39.4v2.8c-1.9,1.5-3.4,2.5-4.7,3.2c-1.2,0.6-2.4,0.9-3.3,0.9c-0.2,0-0.6,0-1-0.1
		c-0.2,0-0.3-0.1-0.5-0.1c-1.8,2.1-3.5,3.6-5.1,4.6s-3.1,1.5-4.6,1.5c-1.9,0-3.5-0.7-4.6-2.2c-1.1-1.4-1.7-3.4-1.7-6
		c0-2.9,0.7-5.6,2.2-8.3s3.6-5,6.3-7c1.2-0.9,2.5-1.6,3.9-2.1s2.5-0.9,3.1-0.9c0.2,0,0.5,0.1,0.7,0.3c0.2,0.2,0.2,0.5,0.2,0.8
		c0,0.6-0.7,1.2-2.1,1.7c-1.4,0.6-2.5,1.2-3.5,1.8c-2.3,1.5-4.2,3.6-5.6,6.1c-1.5,2.5-2.2,5.1-2.2,7.4c0,1.6,0.4,2.9,1.2,4
		s1.7,1.6,2.8,1.6s2.1-0.4,3.3-1.3c1.2-0.8,2.5-2.1,4-3.9c-0.6-1-1-1.8-1.3-2.7c-0.2-0.9-0.4-1.8-0.4-2.7c0-2.4,0.7-4.6,2.1-6.6
		s2.7-3,4.1-3c0.9,0,1.5,0.4,2.1,1.1s0.9,1.7,0.9,2.9c0,1.4-0.3,2.9-1,4.8c-0.7,1.8-1.7,3.7-2.9,5.5h0.2c0.8,0,1.7-0.3,2.8-0.9
		C113.3,42.1,114.9,41,117.1,39.4z M107.5,42.1c1-1.8,1.8-3.5,2.4-4.9s0.8-2.5,0.8-3.3c0-0.3-0.1-0.6-0.3-1
		c-0.2-0.2-0.5-0.4-0.7-0.4c-0.6,0-1.3,0.7-1.9,2.1c-0.6,1.4-1,2.9-1,4.4c0,0.6,0.1,1.1,0.2,1.6C107,41,107.1,41.6,107.5,42.1z"/>
	<path class="st1" d="M173.6,44.9c-1.3,1-2.7,2-4.3,2.9s-3.2,1.6-4.8,2.2c-1.7,0.6-3.3,1.1-4.9,1.5c-1.7,0.4-3.2,0.6-4.7,0.6
		c-3.9,0-6.8-1.4-8.9-4.1c-2.1-2.7-3.1-6.3-3.1-10.7c-2,2-4.2,3.8-6.5,5.6c-2.3,1.7-4.7,3.3-7.2,4.8c-2.5,1.4-5,2.5-7.6,3.3
		c-2.5,0.8-5,1.3-7.5,1.3c-1.2,0-2.1-0.4-2.7-1.1c-0.6-0.8-0.8-1.7-0.8-2.7c0-1.6,0.4-3,1.2-4.3c0.8-1.3,1.9-2.4,3.2-3.3
		c1.4-1,2.9-1.8,4.6-2.5s3.6-1.3,5.5-1.7c1.9-0.5,3.8-0.8,5.7-1.1c1.9-0.2,3.7-0.5,5.3-0.6h0.6c0.2,0,0.2,0,0.4,0.1
		c0.2,0.2,0.4,0.4,0.4,0.6c0,0.5-0.2,1-0.8,1.4s-1,0.7-1.6,0.9c-1.7,0.2-3.7,0.6-6.1,1c-2.4,0.4-4.8,1-7.1,1.8
		c-2.3,0.8-4.4,1.8-6.2,3c-1.8,1.2-3.1,2.6-3.7,4.4c0.5,0.6,1.2,1,2.2,1c2.5,0,5.2-0.5,7.8-1.5c2.6-1,5.2-2.3,7.8-3.9
		c2.6-1.6,4.9-3.3,7.2-5.2s4.4-3.8,6.3-5.6c1-4.6,2.8-8.9,5.3-13s5.6-7.7,9.1-11l0.4-0.4c0.2-0.2,0.3-0.2,0.4-0.2
		c0.3,0,0.5,0.2,0.6,0.7s0.1,0.9,0.1,1.1c0,2-0.5,4.1-1.4,6.3c-1,2.2-2.1,4.5-3.4,6.6c-1.4,2.2-2.9,4.4-4.5,6.4
		c-1.6,2.1-3.2,3.9-4.5,5.6c-0.1,0.3-0.1,0.6-0.1,1v0.8c0,1.7,0.2,3.5,0.8,5.1s1.3,3,2.2,4.2c1,1.2,2.2,2.1,3.7,2.9
		c1.5,0.7,3.2,1.1,5.2,1.1c2.9,0,5.9-0.6,8.9-1.9c2.9-1.3,5.6-2.5,7.9-3.9L173.6,44.9z M157.5,11.1c0.1-0.2,0.1-0.4,0.2-0.6
		c0-0.2,0.1-0.4,0.1-0.7c-2.8,2.8-5.2,5.8-7.2,9.2c-2.1,3.3-3.6,7.1-4.5,11c2.4-2.8,4.6-5.7,6.7-8.8
		C154.8,18.1,156.4,14.7,157.5,11.1z"/>
	<path class="st1" d="M181.1,39.3v2.8c-1.9,1.5-3.5,2.5-4.7,3.2c-1.3,0.6-2.4,0.9-3.4,0.9c-0.2,0-0.6,0-1-0.1
		c-0.2,0-0.3-0.1-0.5-0.1c-1.8,2.1-3.5,3.7-5.1,4.7s-3.1,1.5-4.6,1.5c-2,0-3.5-0.7-4.7-2.2s-1.7-3.5-1.7-6c0-2.9,0.8-5.7,2.3-8.4
		c1.5-2.7,3.7-5,6.4-7c1.2-0.9,2.5-1.6,4-2.2c1.4-0.6,2.5-0.9,3.1-0.9c0.2,0,0.5,0.1,0.7,0.3c0.2,0.2,0.2,0.5,0.2,0.8
		c0,0.6-0.7,1.2-2.1,1.7c-1.4,0.6-2.6,1.3-3.6,1.8c-2.3,1.5-4.2,3.6-5.7,6.2s-2.2,5.1-2.2,7.5c0,1.6,0.4,2.9,1.2,4s1.7,1.7,2.9,1.7
		c1,0,2.1-0.4,3.3-1.3c1.2-0.9,2.5-2.1,4.1-3.9c-0.6-1-1-1.8-1.3-2.8c-0.2-0.9-0.4-1.8-0.4-2.8c0-2.4,0.7-4.6,2.1-6.6
		c1.4-2,2.8-3,4.1-3c0.9,0,1.6,0.4,2.1,1.1c0.6,0.8,0.9,1.7,0.9,2.9c0,1.4-0.3,3-1,4.8s-1.7,3.7-2.9,5.5h0.2c0.8,0,1.7-0.3,2.9-0.9
		C177.2,42.1,178.8,41,181.1,39.3z M171.3,42.1c1-1.9,1.8-3.6,2.4-5c0.6-1.4,0.8-2.5,0.8-3.3c0-0.3-0.1-0.6-0.3-1
		c-0.2-0.2-0.5-0.4-0.7-0.4c-0.6,0-1.3,0.7-2,2.1c-0.6,1.4-1,2.9-1,4.4c0,0.6,0.1,1.1,0.2,1.6C170.8,41,171,41.5,171.3,42.1z"/>
	<path class="st1" d="M181.9,18.1c1.6-1.8,2.4-3.7,2.4-5.4s-0.7-3-2.1-3.9c0.6-0.4,1.1-0.9,1.8-1.3c1.7,0.7,2.5,1.9,2.5,3.7
		c0,2.2-1.3,4.6-3.8,7.2L181.9,18.1z"/>
	<path class="st1" d="M262.1,11.3c1.4,0.1,2.9,0.5,4.2,1.3c1.4,0.7,2.8,1.5,4.2,2.4c1.4,0.9,2.9,1.6,4.5,2.3s3.3,1,5.1,1
		c1.4,0,2.6-0.2,3.7-0.5c1-0.3,2.1-0.7,2.9-1.3s1.7-1.3,2.5-2.1c0.8-0.9,1.6-1.9,2.5-3c0.1-0.1,0.2-0.2,0.2-0.2
		c0.3,0,0.7,0.2,1.2,0.6s0.7,0.7,0.7,1c-0.4,1.1-1.1,2.1-2,3s-1.9,1.6-3,2.1s-2.2,1-3.5,1.3c-1.2,0.3-2.3,0.5-3.4,0.5
		c-2.1,0-4.1-0.3-6.1-0.9s-4.2-1.4-6.5-2.5c0.5,1.2,0.9,2.2,1,2.9c0.2,0.7,0.2,1.4,0.2,2.1c0,2.1-0.5,4.4-1.4,6.7
		c-1,2.3-2.2,4.6-3.9,6.8c-1.7,2.2-3.5,4.4-5.6,6.4s-4.3,3.8-6.6,5.3s-4.6,2.8-7,3.7s-4.5,1.4-6.7,1.4c-1.4,0-2.5-0.2-3.4-0.8
		c-1-0.6-1.7-1.3-2.4-2.1c-0.6-0.9-1.1-1.9-1.4-3.1c-0.3-1.2-0.5-2.4-0.5-3.7c0-1.7,0.2-3.3,0.7-5s1.1-3.3,1.8-4.8
		c0.8-1.6,1.7-3.1,2.6-4.5c1-1.4,2-2.9,3-4.1c-3.5,2.6-7.1,5.1-10.9,7.5c-3.7,2.4-7.9,4.7-12.2,7c-4.4,2.3-9.1,4.7-14.2,7.2
		c-5.2,2.5-10.8,5-17,7.7c-0.1,0-0.2-0.1-0.2-0.2c-0.1-0.2-0.1-0.4-0.2-0.6c-0.1-0.2-0.1-0.4-0.1-0.6s0-0.4,0-0.5
		c0-0.6,0.2-0.9,0.4-1c0.9-0.4,2.2-1.1,4.1-2.1c1.8-1,3.9-2.2,6.2-3.7c2.3-1.4,4.8-3.1,7.6-4.8s5.4-3.7,8.1-5.6
		c2.7-2,5.2-4.1,7.8-6.1c2.5-2.1,4.7-4.2,6.5-6.2c1.9-2.1,3.4-4.1,4.5-6s1.7-3.7,1.7-5.4c0-1.2-0.6-2.1-1.7-2.8c-1.1-0.7-3-1-5.7-1
		c-2.5,0-5.2,0.3-7.9,1c-2.8,0.6-5.5,1.5-8.1,2.5c-2.7,1-5.2,2.2-7.6,3.7c-2.4,1.4-4.5,2.9-6.4,4.4c-1.8,1.5-3.3,3.1-4.4,4.6
		c-1.1,1.6-1.6,3-1.6,4.5c0,0.6,0.2,1,0.7,1.2s1,0.4,1.4,0.4c1.1,0,2.2-0.3,3.3-0.9s2.1-1.2,3.1-1.8c0.2-0.1,0.4-0.2,0.8-0.6
		c0.4-0.3,0.6-0.4,0.6-0.4c0.2,0,0.2,0.2,0.2,0.5s-0.1,0.6-0.2,1c-0.2,0.4-0.2,0.6-0.3,0.8c-0.4,0.5-1,1-1.6,1.4s-1.3,1-2,1.4
		s-1.4,0.8-2.1,1c-0.7,0.2-1.4,0.4-2.1,0.4c-1-0.1-1.7-0.6-2.1-1.4c-0.4-0.9-0.6-1.8-0.6-2.8c0-2.3,0.6-4.5,2-6.5s3-4,5.1-5.7
		s4.5-3.3,7.2-4.7s5.4-2.6,8.1-3.6c2.8-1,5.4-1.7,7.9-2.3s4.8-0.8,6.7-0.8c1.1,0,2.2,0.2,3.3,0.4c1,0.2,1.9,0.7,2.7,1.3
		s1.4,1.4,1.8,2.3c0.5,1,0.6,2.1,0.6,3.3c0,1.5-0.5,3.2-1.5,5s-2.3,3.7-4,5.7s-3.6,4-5.8,6c-2.1,2.1-4.5,4.1-6.8,6
		c-2.4,2-4.8,3.8-7.3,5.6s-4.8,3.5-7,4.9c4.8-2.1,9.7-4.4,14.5-6.9s9.6-5.4,14.5-8.6c4.8-3.2,9.5-6.8,14.3-10.7s9.5-8.4,14.3-13.4
		c0.2,0,0.2,0.1,0.2,0.2c0.1,0.2,0.1,0.2,0.1,0.3c0,0.2,0,0.4,0,0.6s-0.1,0.4-0.2,0.6c-1.7,2.4-3.7,4.7-6,6.8
		c-2.4,2.2-5.1,4.6-8.3,7.3c-1,1.4-2.1,3-3.5,4.8c-1.3,1.8-2.5,3.7-3.7,5.6s-2.1,4-2.9,6c-0.8,2-1.2,3.9-1.2,5.7
		c0,1.7,0.5,3.2,1.5,4.4s2.6,1.8,4.8,1.8c1.9,0,4-0.5,6.2-1.5s4.5-2.3,6.8-4c2.2-1.6,4.5-3.4,6.5-5.5c2.1-2.1,4-4.1,5.6-6.2
		s2.9-4.1,3.9-6s1.4-3.5,1.4-4.8c-0.1-0.9-0.3-1.7-0.8-2.3c-0.5-0.6-1.1-1.2-1.9-1.7s-1.6-0.9-2.5-1.2s-1.7-0.6-2.5-0.9
		c-0.2-0.1-0.4-0.2-0.5-0.6c-0.1-0.2-0.2-0.6-0.2-1s0.1-0.8,0.2-1.2C261.7,11.5,261.9,11.3,262.1,11.3z"/>
</g>
</svg>
