<?xml version="1.0" encoding="utf-8"?>
<!-- Generator: Adobe Illustrator 25.2.0, SVG Export Plug-In . SVG Version: 6.00 Build 0)  -->
<svg version="1.1" id="Layer_1" xmlns="http://www.w3.org/2000/svg" xmlns:xlink="http://www.w3.org/1999/xlink" x="0px" y="0px"
	 viewBox="0 0 50 23" style="enable-background:new 0 0 50 23;" xml:space="preserve">
<style type="text/css">
	.st0{fill:#934390;}
</style>
<path class="st0" d="M35.2,4.4c0.6,0,1.3,0.2,1.8,0.6c0.6,0.3,1.2,0.7,1.8,1c0.6,0.4,1.3,0.7,2,1s1.4,0.4,2.2,0.4
	c0.6,0,1.1-0.1,1.6-0.2c0.4-0.1,0.9-0.3,1.3-0.6c0.3-0.3,0.7-0.6,1.1-0.9c0.3-0.4,0.7-0.8,1.1-1.3c0,0,0.1-0.1,0.1-0.1
	c0.1,0,0.3,0.1,0.5,0.3S49,4.9,49,5c-0.2,0.5-0.5,0.9-0.9,1.3S47.3,7,46.8,7.3c-0.5,0.2-1,0.4-1.5,0.6c-0.5,0.1-1,0.2-1.5,0.2
	c-0.9,0-1.8-0.1-2.7-0.4S39.3,7,38.3,6.6c0.2,0.5,0.4,1,0.4,1.3c0.1,0.3,0.1,0.6,0.1,0.9c0,0.9-0.2,1.9-0.6,2.9c-0.4,1-1,2-1.7,3
	c-0.7,1-1.5,1.9-2.4,2.8c-0.9,0.9-1.9,1.7-2.9,2.3c-1,0.7-2,1.2-3,1.6c-1,0.4-2,0.6-2.9,0.6c-0.6,0-1.1-0.1-1.5-0.3
	c-0.4-0.3-0.7-0.6-1-0.9c-0.3-0.4-0.5-0.8-0.6-1.3c-0.1-0.5-0.2-1-0.2-1.6c0-0.7,0.1-1.4,0.3-2.2c0.2-0.7,0.5-1.4,0.8-2.1
	c0.3-0.7,0.7-1.3,1.1-2c0.4-0.6,0.9-1.3,1.3-1.8c-1.5,1.1-3.1,2.2-4.7,3.3c-1.6,1-3.4,2-5.3,3c-1.9,1-4,2-6.2,3.1
	c-2.3,1.1-4.7,2.2-7.4,3.4c0,0-0.1,0-0.1-0.1c0-0.1,0-0.2-0.1-0.3c0-0.1,0-0.2,0-0.3s0-0.2,0-0.2c0-0.3,0.1-0.4,0.2-0.4
	c0.4-0.2,1-0.5,1.8-0.9c0.8-0.4,1.7-1,2.7-1.6c1-0.6,2.1-1.3,3.3-2.1c1.2-0.7,2.4-1.6,3.5-2.4c1.2-0.9,2.3-1.8,3.4-2.7
	c1.1-0.9,2-1.8,2.8-2.7c0.8-0.9,1.5-1.8,2-2.6C21.7,5.4,22,4.6,22,3.9c0-0.5-0.3-0.9-0.7-1.2c-0.5-0.3-1.3-0.4-2.5-0.4
	c-1.1,0-2.3,0.1-3.4,0.4c-1.2,0.3-2.4,0.7-3.5,1.1c-1.2,0.4-2.3,1-3.3,1.6c-1,0.6-2,1.3-2.8,1.9c-0.8,0.7-1.4,1.3-1.9,2
	c-0.5,0.7-0.7,1.3-0.7,2c0,0.3,0.1,0.4,0.3,0.5s0.4,0.2,0.6,0.2c0.5,0,1-0.1,1.4-0.4s0.9-0.5,1.3-0.8c0.1,0,0.2-0.1,0.3-0.3
	c0.2-0.1,0.3-0.2,0.3-0.2c0.1,0,0.1,0.1,0.1,0.2s0,0.3-0.1,0.4c-0.1,0.2-0.1,0.3-0.1,0.3c-0.2,0.2-0.4,0.4-0.7,0.6S6,12.4,5.7,12.5
	c-0.3,0.2-0.6,0.3-0.9,0.4c-0.3,0.1-0.6,0.2-0.9,0.2c-0.4,0-0.7-0.3-0.9-0.6c-0.2-0.4-0.3-0.8-0.3-1.2c0-1,0.3-2,0.9-2.8
	S4.9,6.7,5.8,6s2-1.4,3.1-2s2.4-1.1,3.5-1.6c1.2-0.4,2.4-0.7,3.4-1S18,1,18.8,1c0.5,0,1,0.1,1.4,0.2c0.4,0.1,0.8,0.3,1.2,0.6
	s0.6,0.6,0.8,1c0.2,0.4,0.3,0.9,0.3,1.4c0,0.7-0.2,1.4-0.7,2.2s-1,1.6-1.7,2.5c-0.7,0.9-1.6,1.7-2.5,2.6c-0.9,0.9-2,1.8-3,2.6
	c-1,0.9-2.1,1.7-3.2,2.4c-1.1,0.8-2.1,1.5-3,2.1c2.1-0.9,4.2-1.9,6.3-3s4.2-2.4,6.3-3.7c2.1-1.4,4.1-3,6.2-4.7s4.1-3.7,6.2-5.8
	c0.1,0,0.1,0,0.1,0.1c0,0.1,0,0.1,0,0.1c0,0.1,0,0.2,0,0.3s0,0.2-0.1,0.3c-0.7,1-1.6,2-2.6,3c-1,1-2.2,2-3.6,3.2
	c-0.4,0.6-0.9,1.3-1.5,2.1c-0.6,0.8-1.1,1.6-1.6,2.4s-0.9,1.7-1.3,2.6c-0.3,0.9-0.5,1.7-0.5,2.5c0,0.7,0.2,1.4,0.7,1.9
	s1.1,0.8,2.1,0.8c0.8,0,1.7-0.2,2.7-0.7s2-1,3-1.7c1-0.7,2-1.5,2.8-2.4c0.9-0.9,1.7-1.8,2.4-2.7c0.7-0.9,1.3-1.8,1.7-2.6
	c0.4-0.8,0.6-1.5,0.6-2.1c0-0.4-0.1-0.7-0.3-1c-0.2-0.3-0.5-0.5-0.8-0.7s-0.7-0.4-1.1-0.5S35.3,5.9,35,5.8c-0.1,0-0.2-0.1-0.2-0.3
	c0-0.1-0.1-0.3-0.1-0.4s0-0.3,0.1-0.5C35,4.5,35.1,4.4,35.2,4.4z"/>
</svg>
