<?xml version="1.0" encoding="utf-8"?>
<!-- Generator: Adobe Illustrator 25.2.0, SVG Export Plug-In . SVG Version: 6.00 Build 0)  -->
<svg version="1.1" id="Layer_1" xmlns="http://www.w3.org/2000/svg" xmlns:xlink="http://www.w3.org/1999/xlink" x="0px" y="0px"
	 viewBox="0 0 360 262" style="enable-background:new 0 0 360 262;" xml:space="preserve">
<style type="text/css">
	.st0{fill:#FFFFFF;}
</style>
<g>
	<g>
		<path class="st0" d="M160.3,3.3v0.4h-0.9c-2.4,0-3.6,0.6-4.4,2.8l-11.3,29.2h-0.6l-7.3-17.3L129,35.7h-0.6L116.1,6.5
			c-1.1-2.1-1.7-2.8-4-2.8h-0.6V3.3h10v0.4h-0.9c-2.4,0-2.1,0.6-1.2,2.8l10.7,25.2l5.4-13.9l-4.8-11.2c-1.1-2.1-1.7-2.8-4.1-2.8
			h-0.5V3.3h10v0.4h-0.9c-2.4,0-2.1,0.6-1.2,2.8l3.1,7.3l3-7.7c0.9-2.4,0.1-2.4-2.2-2.4h0V3.3h8v0.4h-0.9c-2.4,0-3.6,0.6-4.4,2.8
			l-3.1,7.9l7.4,17.3l9.8-25.2c0.9-2.3-0.4-2.8-2.8-2.8h-0.9V3.3H160.3z"/>
		<path class="st0" d="M180.8,26.6c-1.4,2.5-5.6,9.4-13.3,9.4c-6.8,0-11.6-4-11.8-10.4c-0.1-6.9,5.4-12.6,12-12.6c5,0,9,3.3,9,8.4
			h-18.1c-0.1,1.1-0.2,2.2-0.1,3.4c0.6,6.4,5,9.5,9.9,9.8c7.4,0.5,11-5.9,12.3-8.1L180.8,26.6z M158.6,21h15.1
			c0.2-3.8-1.8-7.5-6.8-7.5C162.8,13.5,159.4,16.4,158.6,21z"/>
	</g>
	<g>
		<path class="st0" d="M86.3,87c-2.2,4.7-6.8,10.3-13.8,9.7c-9.1-0.7-13.6-7.3-17.2-21.2c-4.8-18.4-12.4-18.4-27.9-18.4H20v30.8
			c0,5.9,1.1,7.1,7,7.1h6.4V96H3V95h2.3c6,0,7-1.3,7-7.1V22.1c0-5.9-1.1-7-7-7H3V14h32.3c20.4,0,31,7.3,31,21.5
			c0,12.2-7.8,19.2-22.7,21.1c7.6,1.2,15.2,4.7,18.7,14.4c3.7,10.5,4,22.8,11.6,24.1c4.7,0.8,9.3-3.6,11.5-8.5L86.3,87z M20,55.7
			h13.3c19.9,0,24.9-9.4,24.9-20.1c0-10.8-5-20.1-24.9-20.1H20V55.7z"/>
		<path class="st0" d="M113.8,95V96H87.5V95h2.3c6,0,7-1.3,7-7.1V47.4c0-5.9-1.1-7-7-7h-2.3v-1.1h17v48.6c0,5.9,1.1,7.1,7,7.1H113.8
			z M94.6,22.1c0-2.9,2.3-5.4,5.4-5.4c2.9,0,5.4,2.5,5.4,5.4c0,3-2.5,5.4-5.4,5.4C96.9,27.5,94.6,25.1,94.6,22.1z"/>
		<path class="st0" d="M164.3,81.8c-1.2,10.3-11.1,15.2-22.1,14.9c-12.5-0.4-17.8-7-20.8-6.6c-1.6,0.4-2,2.7-2,5.2
			c0,1.1,0,1.8,0,1.8h-0.8V73.5h0.8c0,0,0,3.2,0,4.5c0,11.7,13,17.1,21.4,17.4c9,0.5,17.8-3,18.3-10.5c0.5-7.3-7.1-10.3-18.4-14.6
			c-12.6-4.9-20.3-9.8-18.6-19.8c1.8-10.3,15.3-12.1,19.1-11.9c11.8,0.4,14.8,5,17,5.2c1.4,0,1.6-1.6,1.6-3.3c0-1.4,0-2.2,0-2.2h0.7
			v23.5h-0.7c0,0,0-2.6,0-4.4c0-10.8-4.8-17-18.7-17.4c-6.2-0.2-14.3,3.3-14.2,10.5c0,6.6,7.3,8.9,15.1,12.3
			C150.9,66.5,165.6,70.2,164.3,81.8z"/>
		<path class="st0" d="M236.2,72.9c-3.6,6.4-14.1,23.8-33.7,23.8c-17.3,0-29.4-10.2-29.7-26.2c-0.4-17.4,13.7-32,30.3-32
			c12.8,0,22.7,8.4,22.7,21.2h-45.9c-0.4,2.7-0.5,5.5-0.2,8.5c1.5,16.3,12.5,24,24.9,24.8c18.6,1.2,27.9-14.9,31-20.6L236.2,72.9z
			 M180.1,58.7h38.3c0.5-9.6-4.6-18.9-17.3-19C190.6,39.6,182.2,47,180.1,58.7z"/>
	</g>
	<g>
		<path class="st0" d="M213.5,99.3v7.5h-0.3v-4c0-1.9-0.4-3-2.3-3h-6.9v23.3c0,1.9,0.3,2.3,2.3,2.3h0.8v0.3h-8.4v-0.3h0.7
			c1.9,0,2.3-0.4,2.3-2.3V99.8h-6.9c-1.9,0-2.3,1.1-2.3,3v4H192v-7.5H213.5z"/>
		<path class="st0" d="M238.1,125.4v0.3h-8.5v-0.3h0.8c1.9,0,2.3-0.4,2.3-2.3c0-2.8,0-7.2,0-9.3c0-3.8-2-6.1-5.2-6.1
			c-3.7,0-6.3,3.5-6.3,6.3v9.1c0,1.9,0.3,2.3,2.3,2.3h0.8v0.3h-8.5v-0.3h0.8c1.9,0,2.3-0.4,2.3-2.3v-21.2c0-1.9-0.3-2.3-2.3-2.3
			h-0.8v-0.3h5.5v12.5c0.9-2.4,3.4-4.6,6.7-4.6c4.3,0,7.2,2.5,7.2,7.1c0,2.7,0,8.8,0,8.8c0,1.9,0.3,2.3,2.3,2.3H238.1z"/>
		<path class="st0" d="M259.7,118.3c-1.2,2.1-4.5,7.6-10.8,7.6c-5.6,0-9.5-3.3-9.6-8.4c-0.1-5.6,4.4-10.3,9.8-10.3
			c4.1,0,7.3,2.7,7.3,6.8h-14.8c-0.1,0.9-0.2,1.8-0.1,2.7c0.5,5.2,4,7.7,8,8c6,0.4,9-4.8,10-6.6L259.7,118.3z M241.6,113.7h12.3
			c0.2-3.1-1.5-6.1-5.6-6.1C245,107.6,242.3,109.9,241.6,113.7z"/>
	</g>
	<g>
		<path class="st0" d="M134.2,104.6v23.5h-1v-12.7c0-6.1-1.3-9.4-7.2-9.4h-21.8v73.4c0,5.9,1.1,7.2,7.1,7.2h2.4v0.9H87.1v-0.9h2.3
			c6.1,0,7.1-1.3,7.1-7.2V106H74.8c-6.1,0-7.2,3.3-7.2,9.4v12.7h-1v-23.5H134.2z"/>
		<path class="st0" d="M194,181.5c-1.9,2.8-5.9,6.9-11.3,6.9c-5.8,0-9.6-3.3-9.6-10.3c0-0.9,0-7.9,0-9c-1.2,6.4-7,18.6-20.1,19.3
			c-9.4,0.5-20.2-3.8-20.5-14.1c-0.5-12.5,10.7-15.7,24.1-17.9c11.3-1.9,15.1-6.5,16.5-9.1c0-14-6.3-16.8-14-16.8
			c-6.3,0-9.1,5.1-12.9,8.8c-3,2.8-5.3,2.8-6.8,1.1c-1.2-1.4-0.5-3.7,1.7-5.1c5-3.1,12-5.7,18.3-5.7c13.5,0,21.4,6.6,21.4,21.8v27.5
			c0,6.1,1.3,7.9,3.7,8.2c2.8,0.4,6.8-2.4,9-5.9L194,181.5z M173.1,148.6c-2.5,2.8-5.2,6.4-17.9,8.9c-7.2,1.5-16.4,5.2-15.8,16.3
			c0.6,9.4,8.3,13.5,16.8,12.7c9.7-0.9,16.8-12.6,16.8-23.1C173.1,158,173.1,152.4,173.1,148.6z"/>
		<path class="st0" d="M243.9,173.3c-1.2,10.4-11.3,15.4-22.4,15.1c-12.7-0.4-18-7.1-21.1-6.6c-1.7,0.4-2,2.7-2,5.2
			c0,1.1,0,1.8,0,1.8h-0.8v-23.8h0.8c0,0,0,3.2,0,4.5c0,11.9,13.2,17.3,21.7,17.7c9.1,0.5,18-3.1,18.5-10.7
			c0.5-7.4-7.2-10.4-18.6-14.8c-12.8-5-20.5-10-18.9-20.1c1.8-10.4,15.5-12.2,19.3-12.1c12,0.4,15,5.1,17.2,5.2
			c1.4,0,1.7-1.7,1.7-3.3c0-1.4,0-2.3,0-2.3h0.7v23.8h-0.7c0,0,0-2.6,0-4.5c0-10.9-4.9-17.2-19-17.7c-6.3-0.2-14.5,3.3-14.4,10.7
			c0,6.6,7.4,9,15.3,12.5C230.4,157.8,245.3,161.6,243.9,173.3z"/>
		<path class="st0" d="M288.2,177.8c-1.9,2.3-7.2,10.6-15,10.6c-10.6,0-15.5-5.2-15.5-17.6v-39.5h-10.1v-1.1c8.9,0,15-8.7,17-18.4
			c0.4,0,0.8,0,0.8,0v18.4h17.7v1.1h-17.7v41.5c0,11.4,4.3,13.9,9.1,13.9c6.8,0,10.7-6.5,13.1-9.5L288.2,177.8z"/>
		<path class="st0" d="M355,164.3c-3.7,6.5-14.2,24.1-34.2,24.1c-17.6,0-29.8-10.3-30.1-26.6c-0.4-17.7,13.9-32.4,30.7-32.4
			c12.9,0,23,8.5,23,21.5h-46.5c-0.4,2.7-0.5,5.6-0.2,8.7c1.5,16.5,12.7,24.3,25.3,25.2c18.9,1.2,28.2-15.1,31.4-20.9L355,164.3z
			 M298.2,149.9H337c0.5-9.7-4.6-19.1-17.6-19.2C308.8,130.6,300.3,138.1,298.2,149.9z"/>
	</g>
	<g>
		<path class="st0" d="M100.5,232.5v25.2H38.7v-0.9h2.3c6,0,7-1.3,7-7.1v-65.5c0-6-1.1-7.1-7-7.1h-2.3V176H65v1.1h-2.3
			c-6,0-7,1.2-7,7.1v72.2h36.8c5.8,0,7.1-3.3,7.1-9.2v-14.6H100.5z"/>
		<path class="st0" d="M173.3,234.8c-3.6,6.4-14,23.7-33.6,23.7c-17.3,0-29.3-10.2-29.7-26.2c-0.3-17.4,13.7-31.9,30.3-31.9
			c12.7,0,22.7,8.4,22.7,21.1h-45.8c-0.4,2.7-0.5,5.5-0.2,8.5c1.5,16.2,12.5,23.9,24.9,24.8c18.6,1.2,27.8-14.8,31-20.6L173.3,234.8
			z M117.4,220.6h38.2c0.5-9.6-4.6-18.8-17.3-18.9C127.9,201.6,119.5,208.9,117.4,220.6z"/>
		<path class="st0" d="M229.5,201.2v1.1h-0.8c-5.4,0-7,2.3-9,7.1l-20.6,48.4h-1.3l-22.3-48.4c-2.7-5.7-4.3-7.1-10.3-7.1H164v-1.1
			h24.3v1.1h-1.6c-6,0-6,1.6-3.4,7.1l18.5,39.5l16.7-39.5c2.5-5.8,0.8-7.1-5.1-7.1H213v-1.1H229.5z"/>
		<path class="st0" d="M290.6,234.8c-3.6,6.4-14,23.7-33.6,23.7c-17.3,0-29.3-10.2-29.7-26.2c-0.3-17.4,13.7-31.9,30.3-31.9
			c12.7,0,22.7,8.4,22.7,21.1h-45.8c-0.4,2.7-0.5,5.5-0.2,8.5c1.5,16.2,12.5,23.9,24.9,24.8c18.6,1.2,27.8-14.8,31-20.6L290.6,234.8
			z M234.6,220.6h38.2c0.5-9.6-4.6-18.8-17.3-18.9C245.2,201.6,236.7,208.9,234.6,220.6z"/>
		<path class="st0" d="M313.3,256.8v0.9h-26.2v-0.9h2.3c5.8,0,7-1.3,7-7.1v-65.7c0-5.8-1.2-7-7-7h-2.3V176h16.8v73.7
			c0,5.8,1.1,7.1,7,7.1H313.3z"/>
	</g>
</g>
</svg>
